<?xml version="1.0" encoding="UTF-8"?>
<svg id="Layer_1" data-name="Layer 1" xmlns="http://www.w3.org/2000/svg" viewBox="0 0 283 424">
  <defs>
    <style>
      .cls-1 {
        font-family: Cinzel-Regular, Cinzel;
        font-size: 38.4px;
      }

      .cls-1, .cls-2 {
        fill: #c2a167;
      }

      .cls-3 {
        letter-spacing: -.09em;
      }

      .cls-4 {
        letter-spacing: -.03em;
      }

      .cls-5 {
        letter-spacing: -.02em;
      }

      .cls-6 {
        letter-spacing: 0em;
      }
    </style>
  </defs>
  <rect width="283" height="424"/>
  <path class="cls-2" d="m135.69,162.67c-8.3-17.42-22.99-14.23-33.95-6.71-.57.32-.71.98-.27,1.64,8.13,16.07,15.07,34.52,25.99,45.96-2.14,1.5-4.19,2.38-5.47,5.91-5.64,9.12-14.58,11.38-22.15,12.34-10.14.48-22.17-.2-29.16-14.33-.93-2.19-2.28-2.47-3.66-3.45-1.97-1.87,1.93-4.42,2.51-6.19,7.54-12.87,15.57-24.99,22.52-38.78.53-1.01.35-1.63-.5-1.89-14.39-2.83-11.98-18.06-3.55-11.74-.74,1.04-1.59,1.53-2.07,2.76,6.24,7.07,13.87.74,20.53-1.31,4.82-2.82,10.01-2.98,14.92-4.79,5.32-4.18,15.23,5.86,17.75,1.85,1.76-5.61-10.68-7.26-5.71-14.4,1.76-2.69,4.72-3.08,6.09-6.31,1.18-.61,2.6-.64,4.09.1-.11.24-.19.42-.27.6,17.09,12.4.46,11.21.32,19.46,1.22,3.98,8.47-.84,10.81-1.36,13.77-5.42,29.4,16.06,42.06,6.96,1.9-1.34-2.61-3.32-.57-4.54,2.04-1.31,3.94-.67,5.72,1.28,2.18,6.92-7,11.12-10.08,11.39-2.46.53,2.57,7.09,3.14,8.78,7.03,12.71,15.11,24.7,21.79,37.48-.29,1.66-3.51.94-4.33,4.17-2.01,5.4-5.24,7.71-8.52,9.89-12.79,7.46-27.86,6.08-40-4.11-4.09-3.45-2.4-6.72-7.82-9.76-.02-.18-.05-.35-.07-.53,10.72-10.54,17.91-29.01,25.55-44.99.78-1.46.81-1.64-.27-2.22-11.42-7.65-24.72-10.13-33.82,6.49.04.15.07.29.11.44,6.09,3.72,3.96,6.15-.15,11,5.72,7.54.64,5.69,1.61,10.27.59,1.41.52,2.39-.17,3.65-3.41,4.35.65,2.93-.12,8.82-.93,11.13,5.48,18.28,9.52,25.43,1.38,2.62-.72,5.17-1.01,7.79-.2,1.21.4,2.01,1.02,2.46,4.91,3.29,9.44,7.29,14.22,11.21-19.61,9.55-41.3,8.14-61.01.3,1.77-4.46,16.1-10.54,14.64-15.05-3.21-5.53.87-9.51,3.33-12.87,2.97-4.89,6.16-12.55,5.49-19.83-.2-1.76.08-3.19.76-4.44,1.2-2.8-3-3.55-1.09-7.77-.05-4.2-2.8-4.67.6-8.55,2.66-3.01-8.62-6.99.69-12.51Zm75.96,38.49c-1.34-3.58-3.56-5.46-5.25-8.49-3.04-5.04-6.02-10.18-8.97-15.36-3.27-5.75-6.68-11.32-9.07-18.31-.22-.65-.7-1.28-1.13-1.48-1.47-.68-2.88-.42-3.9,1.74-1.48,3.15-2.97,6.3-4.35,9.58-3.23,7.7-6.68,15.08-10.62,21.8-1.83,3.11-3.74,6.09-5.59,9.16-.22.36-.3.95-.45,1.43,1.07.98,2.31.46,3.48.56,13.13-.02,26.26-.04,39.39-.04.44,0,.9-.01,1.32.16,1.67.67,3.28.49,5.14-.76Zm-90.72.4c.03-.7-.6-1.43-.95-2.05-7.77-12.02-14.01-26.3-20.44-40.28-1.05-2.28-2.47-2.16-3.91-1.51-.39.18-.76.85-1.01,1.45-.89,2.15-1.58,4.56-2.59,6.51-4.72,8.8-9.59,17.4-14.56,25.81-1.69,2.78-3.57,5.24-5.34,7.89-.24.36-.35.96-.52,1.45.63.45,1.28.64,1.95.8.41.17.81.61,1.21.59,15.35-1.3,30.8.38,46.14-.66Z"/>
  <text class="cls-1" transform="translate(14.09 292.83) scale(.6 1)"><tspan x="0" y="0">Du</tspan><tspan class="cls-3" x="57.87" y="0">y</tspan><tspan x="78.99" y="0">ar </tspan><tspan class="cls-5" x="138.13" y="0">H</tspan><tspan class="cls-6" x="168.58" y="0">ukuk Bü</tspan><tspan class="cls-4" x="329.26" y="0">r</tspan><tspan x="351.99" y="0">osu</tspan></text>
</svg>