<?xml version="1.0" encoding="UTF-8"?>
<svg id="Layer_1" data-name="Layer 1" xmlns="http://www.w3.org/2000/svg" viewBox="0 0 283 424">
  <defs>
    <style>
      .cls-1 {
        fill: #c2a167;
      }
    </style>
  </defs>
  <rect width="283" height="424"/>
  <path class="cls-1" d="m135.69,162.67c-8.3-17.42-22.99-14.23-33.95-6.71-.57.32-.71.98-.27,1.64,8.13,16.07,15.07,34.52,25.99,45.96-2.14,1.5-4.19,2.38-5.47,5.91-5.64,9.12-14.58,11.38-22.15,12.34-10.14.48-22.17-.2-29.16-14.33-.93-2.19-2.28-2.47-3.66-3.45-1.97-1.87,1.93-4.42,2.51-6.19,7.54-12.87,15.57-24.99,22.52-38.78.53-1.01.35-1.63-.5-1.89-14.39-2.83-11.98-18.06-3.55-11.74-.74,1.04-1.59,1.53-2.07,2.76,6.24,7.07,13.87.74,20.53-1.31,4.82-2.82,10.01-2.98,14.92-4.79,5.32-4.18,15.23,5.86,17.75,1.85,1.76-5.61-10.68-7.26-5.71-14.4,1.76-2.69,4.72-3.08,6.09-6.31,1.18-.61,2.6-.64,4.09.1-.11.24-.19.42-.27.6,17.09,12.4.46,11.21.32,19.46,1.22,3.98,8.47-.84,10.81-1.36,13.77-5.42,29.4,16.06,42.06,6.96,1.9-1.34-2.61-3.32-.57-4.54,2.04-1.31,3.94-.67,5.72,1.28,2.18,6.92-7,11.12-10.08,11.39-2.46.53,2.57,7.09,3.14,8.78,7.03,12.71,15.11,24.7,21.79,37.48-.29,1.66-3.51.94-4.33,4.17-2.01,5.4-5.24,7.71-8.52,9.89-12.79,7.46-27.86,6.08-40-4.11-4.09-3.45-2.4-6.72-7.82-9.76-.02-.18-.05-.35-.07-.53,10.72-10.54,17.91-29.01,25.55-44.99.78-1.46.81-1.64-.27-2.22-11.42-7.65-24.72-10.13-33.82,6.49.04.15.07.29.11.44,6.09,3.72,3.96,6.15-.15,11,5.72,7.54.64,5.69,1.61,10.27.59,1.41.52,2.39-.17,3.65-3.41,4.35.65,2.93-.12,8.82-.93,11.13,5.48,18.28,9.52,25.43,1.38,2.62-.72,5.17-1.01,7.79-.2,1.21.4,2.01,1.02,2.46,4.91,3.29,9.44,7.29,14.22,11.21-19.61,9.55-41.3,8.14-61.01.3,1.77-4.46,16.1-10.54,14.64-15.05-3.21-5.53.87-9.51,3.33-12.87,2.97-4.89,6.16-12.55,5.49-19.83-.2-1.76.08-3.19.76-4.44,1.2-2.8-3-3.55-1.09-7.77-.05-4.2-2.8-4.67.6-8.55,2.66-3.01-8.62-6.99.69-12.51Zm75.96,38.49c-1.34-3.58-3.56-5.46-5.25-8.49-3.04-5.04-6.02-10.18-8.97-15.36-3.27-5.75-6.68-11.32-9.07-18.31-.22-.65-.7-1.28-1.13-1.48-1.47-.68-2.88-.42-3.9,1.74-1.48,3.15-2.97,6.3-4.35,9.58-3.23,7.7-6.68,15.08-10.62,21.8-1.83,3.11-3.74,6.09-5.59,9.16-.22.36-.3.95-.45,1.43,1.07.98,2.31.46,3.48.56,13.13-.02,26.26-.04,39.39-.04.44,0,.9-.01,1.32.16,1.67.67,3.28.49,5.14-.76Zm-90.72.4c.03-.7-.6-1.43-.95-2.05-7.77-12.02-14.01-26.3-20.44-40.28-1.05-2.28-2.47-2.16-3.91-1.51-.39.18-.76.85-1.01,1.45-.89,2.15-1.58,4.56-2.59,6.51-4.72,8.8-9.59,17.4-14.56,25.81-1.69,2.78-3.57,5.24-5.34,7.89-.24.36-.35.96-.52,1.45.63.45,1.28.64,1.95.8.41.17.81.61,1.21.59,15.35-1.3,30.8.38,46.14-.66Z"/>
  <g>
    <path class="cls-1" d="m29.21,269.66c1.52,2.47,2.28,5.72,2.28,9.74s-.76,7.26-2.28,9.73c-1.52,2.47-3.51,3.71-5.96,3.71h-7.78v-.38h.3c.4,0,.74-.24,1.02-.71.28-.47.43-1.04.45-1.71v-21.5c0-.61-.15-1.13-.45-1.55-.3-.42-.64-.63-1.02-.63h-.28l-.02-.38h7.78c2.45,0,4.43,1.24,5.96,3.71Zm-10.48-2.55v24.58h4.52c1.29,0,2.42-.51,3.41-1.54.99-1.02,1.75-2.46,2.3-4.32.54-1.86.81-4,.81-6.43,0-3.69-.6-6.66-1.8-8.91s-2.77-3.38-4.72-3.38h-4.52Z"/>
    <path class="cls-1" d="m47.88,270.17h-.34c-.41,0-.73.27-.94.81-.09.23-.15.5-.16.81v12.94c0,2.66-.51,4.77-1.53,6.32-1.02,1.55-2.41,2.32-4.19,2.32s-3.18-.77-4.2-2.3c-1.03-1.54-1.54-3.63-1.54-6.3v-12.94c0-.46-.11-.85-.32-1.17-.21-.32-.47-.48-.78-.48h-.34v-.38h4.36v.38h-.34c-.31,0-.57.16-.78.48-.21.32-.32.71-.32,1.17v12.48c0,2.48.38,4.44,1.14,5.88.76,1.43,1.83,2.15,3.21,2.15s2.49-.68,3.33-2.04c.83-1.36,1.25-3.21,1.25-5.57v-12.9c-.02-.49-.13-.88-.33-1.19-.21-.31-.46-.46-.77-.46h-.34v-.38h3.95v.38Z"/>
    <path class="cls-1" d="m63.49,270.17h-.28c-.41,0-.81.19-1.18.56-.38.37-.68.84-.93,1.4l-4.41,11.17v7.07c0,.56.13,1.05.39,1.46.26.41.57.61.94.61h.28v.38h-4.71v-.38h.28c.37,0,.68-.21.94-.61.26-.41.39-.9.39-1.46v-7.1l-4.25-11.17c-.52-1.28-1.22-1.92-2.11-1.92h-.28v-.38h5.32v.38h-.28c-.29,0-.5.15-.63.46s-.2.57-.2.79.02.42.05.6l3.35,9.95,3.56-9.91c.05-.21.07-.42.07-.63s-.07-.48-.19-.79c-.13-.31-.35-.46-.65-.46h-.28v-.38h4.8v.38Z"/>
    <path class="cls-1" d="m76.45,292.45h.18v.38h-4.71v-.38h.18c.29,0,.51-.17.67-.5.15-.33.23-.65.23-.94s-.03-.58-.09-.86l-1.26-5.11h-5.81l-1.26,4.99c-.08.33-.11.65-.11.94s.08.61.23.96c.15.35.38.52.69.52h.18v.38h-4.38v-.38h.18c.32,0,.65-.19.98-.56.33-.37.6-.93.81-1.67,3.35-11.98,5.1-18.25,5.23-18.82.26-1.08.4-1.79.41-2.15h.21l5.67,20.97c.44,1.49,1.03,2.23,1.77,2.23Zm-10.31-8.56h5.23l-2.57-10.52-2.66,10.52Z"/>
    <path class="cls-1" d="m82.08,270.98h-1.22v19.39c.01.79.23,1.4.64,1.81.2.18.42.27.67.27h.3l.02.38h-4.71v-.38h.32c.35,0,.65-.2.91-.6.25-.4.38-.88.38-1.44v-18.24c0-.56-.13-1.04-.38-1.42-.25-.38-.55-.58-.91-.58h-.32v-.38h5.76c1.44,0,2.57.55,3.41,1.65s1.25,2.55,1.25,4.34-.34,3.29-1.01,4.49c-.67,1.2-1.53,1.9-2.57,2.07.49.36,1.08,1.36,1.77,3-.02,0,.25.56.79,1.69.54,1.13.98,2,1.31,2.63.33.63.6,1.11.81,1.44.57.9,1.22,1.34,1.95,1.34v.38h-.71c-1.21,0-2.16-.4-2.85-1.19-.52-.59-1-1.32-1.42-2.19-.09-.21-.48-1.11-1.16-2.71-.68-1.6-1.04-2.45-1.09-2.55-.83-1.71-1.6-2.57-2.32-2.57v-.38c1.79,0,2.87-.15,3.24-.46.5-.43.85-.9,1.03-1.38.38-1.02.57-2.15.57-3.38,0-1.56-.28-2.76-.83-3.61-.55-.84-1.29-1.31-2.23-1.38-.41-.03-.89-.04-1.42-.04Z"/>
    <path class="cls-1" d="m109.21,292.45c.4,0,.74-.23,1.02-.69s.43-1.02.45-1.69v-9.95h-9.39v9.91c0,.67.15,1.24.44,1.71.29.47.63.71,1.03.71h.3v.38h-5.03v-.38h.3c.4,0,.74-.24,1.02-.71.28-.47.43-1.04.45-1.71v-21.31c-.02-.67-.17-1.23-.45-1.69-.28-.46-.62-.69-1.02-.69h-.3v-.38h5.03v.38h-.3c-.4,0-.74.23-1.02.69-.28.46-.43,1.02-.45,1.69v10.25h9.39v-10.25c-.02-.92-.26-1.61-.73-2.07-.23-.2-.47-.31-.73-.31h-.3v-.38h5.03v.38h-.3c-.4,0-.74.24-1.02.71-.28.47-.43,1.04-.45,1.71v21.27c.01.67.16,1.24.45,1.71.28.47.62.71,1.02.71h.3v.38h-5.03v-.38h.3Z"/>
    <path class="cls-1" d="m130.12,270.17h-.34c-.41,0-.73.27-.94.81-.09.23-.15.5-.16.81v12.94c0,2.66-.51,4.77-1.53,6.32-1.02,1.55-2.41,2.32-4.19,2.32s-3.17-.77-4.2-2.3-1.54-3.63-1.54-6.3v-12.94c0-.46-.11-.85-.32-1.17-.21-.32-.47-.48-.78-.48h-.34v-.38h4.36v.38h-.34c-.31,0-.57.16-.78.48-.21.32-.32.71-.32,1.17v12.48c0,2.48.38,4.44,1.14,5.88.76,1.43,1.83,2.15,3.21,2.15s2.49-.68,3.33-2.04c.83-1.36,1.25-3.21,1.25-5.57v-12.9c-.02-.49-.13-.88-.33-1.19-.21-.31-.46-.46-.77-.46h-.34v-.38h3.95v.38Z"/>
    <path class="cls-1" d="m136.63,292.45h.25v.38h-4.71v-.38h.28c.37,0,.68-.21.94-.61.26-.41.4-.9.41-1.46v-18.12c-.02-.56-.15-1.05-.41-1.46-.26-.41-.57-.61-.94-.61h-.28v-.38h4.71v.38h-.28c-.49,0-.87.33-1.15,1-.12.31-.18.65-.18,1.04v18.2c0,.56.13,1.04.4,1.44.27.4.58.6.95.6Zm8.72.38h-.85c-1.5,0-2.62-.73-3.37-2.19l-5.05-9.25,4.94-9.72c.17-.36.19-.7.08-1.02-.12-.32-.31-.48-.58-.48h-.21v-.38h4.68v.38h-.09c-.93,0-1.68.46-2.23,1.38l-5,8.95,5.69,10.37c.28.56.56.96.85,1.19.29.23.67.36,1.15.38v.38Z"/>
    <path class="cls-1" d="m160.5,270.17h-.34c-.41,0-.73.27-.94.81-.09.23-.15.5-.16.81v12.94c0,2.66-.51,4.77-1.53,6.32-1.02,1.55-2.41,2.32-4.19,2.32s-3.18-.77-4.2-2.3-1.54-3.63-1.54-6.3v-12.94c0-.46-.11-.85-.32-1.17-.21-.32-.47-.48-.78-.48h-.34v-.38h4.36v.38h-.34c-.31,0-.57.16-.78.48-.21.32-.32.71-.32,1.17v12.48c0,2.48.38,4.44,1.14,5.88.76,1.43,1.83,2.15,3.21,2.15s2.49-.68,3.33-2.04c.83-1.36,1.25-3.21,1.25-5.57v-12.9c-.02-.49-.13-.88-.33-1.19s-.46-.46-.77-.46h-.34v-.38h3.95v.38Z"/>
    <path class="cls-1" d="m167.02,292.45h.25v.38h-4.71v-.38h.28c.37,0,.68-.21.94-.61.26-.41.4-.9.41-1.46v-18.12c-.01-.56-.15-1.05-.41-1.46-.26-.41-.57-.61-.94-.61h-.28v-.38h4.71v.38h-.28c-.49,0-.87.33-1.15,1-.12.31-.18.65-.18,1.04v18.2c0,.56.13,1.04.4,1.44.27.4.58.6.95.6Zm8.72.38h-.85c-1.5,0-2.62-.73-3.37-2.19l-5.05-9.25,4.93-9.72c.17-.36.2-.7.08-1.02-.12-.32-.31-.48-.59-.48h-.21v-.38h4.68v.38h-.09c-.93,0-1.67.46-2.23,1.38l-5,8.95,5.69,10.37c.28.56.56.96.85,1.19.29.23.67.36,1.15.38v.38Z"/>
    <path class="cls-1" d="m188.35,292.83h-5.6l.02-.38h.28c.4,0,.74-.23,1.02-.69.28-.46.43-1.02.45-1.69v-21.35c0-.67-.15-1.23-.44-1.69-.29-.46-.63-.69-1.03-.69h-.28l-.02-.38h4.57c1.58,0,2.8.58,3.67,1.75s1.31,2.72,1.31,4.67c0,1.54-.25,2.81-.74,3.82-.49,1.01-1.09,1.68-1.79,2.02,1.21.31,2.17,1.14,2.87,2.5.7,1.36,1.06,3.07,1.06,5.13s-.47,3.75-1.41,5.05c-.94,1.31-2.25,1.96-3.94,1.96Zm-2.34-1.38h2.29c1.16,0,2.07-.53,2.71-1.59.64-1.06.96-2.57.96-4.51,0-1.1-.11-2.07-.33-2.9-.22-.83-.5-1.49-.84-1.98-.89-1.23-2.22-1.84-3.99-1.84h-.02v-.35h.22c.13,0,.32-.02.56-.08.24-.05.52-.14.83-.27.31-.13.58-.33.83-.61.25-.28.47-.61.69-1,.44-.84.67-2.11.67-3.78s-.29-2.99-.86-3.94c-.57-.95-1.4-1.42-2.49-1.42h-1.22v24.27Z"/>
    <path class="cls-1" d="m210.08,270.17h-.34c-.41,0-.73.27-.94.81-.09.23-.15.5-.16.81v12.94c0,2.66-.51,4.77-1.53,6.32-1.02,1.55-2.41,2.32-4.19,2.32s-3.18-.77-4.2-2.3c-1.03-1.54-1.54-3.63-1.54-6.3v-12.94c0-.46-.11-.85-.32-1.17-.21-.32-.47-.48-.78-.48h-.34v-.38h4.36v.38h-.34c-.31,0-.57.16-.78.48-.21.32-.32.71-.32,1.17v12.48c0,2.48.38,4.44,1.14,5.88.76,1.43,1.83,2.15,3.21,2.15s2.49-.68,3.33-2.04c.83-1.36,1.25-3.21,1.25-5.57v-12.9c-.02-.74-.25-1.25-.69-1.54-.12-.08-.26-.12-.41-.12h-.34v-.38h3.95v.38Zm-8.75-3.28c-.17.29-.38.44-.63.44s-.47-.15-.64-.44c-.18-.29-.26-.65-.26-1.06s.09-.76.26-1.06c.18-.29.39-.44.64-.44s.46.15.63.44c.17.29.25.65.25,1.06s-.08.76-.25,1.06Zm4.33,0c-.18.29-.39.44-.63.44s-.46-.15-.63-.44c-.18-.29-.26-.65-.26-1.06s.09-.76.26-1.06c.18-.29.39-.44.63-.44s.46.15.63.44c.18.29.26.65.26,1.06s-.09.76-.26,1.06Z"/>
    <path class="cls-1" d="m216.44,270.98h-1.22v19.39c.02.79.23,1.4.64,1.81.2.18.42.27.67.27h.3l.02.38h-4.71v-.38h.32c.35,0,.65-.2.91-.6.25-.4.38-.88.38-1.44v-18.24c0-.56-.13-1.04-.38-1.42-.25-.38-.55-.58-.91-.58h-.32v-.38h5.76c1.44,0,2.57.55,3.41,1.65s1.25,2.55,1.25,4.34-.34,3.29-1.01,4.49c-.67,1.2-1.53,1.9-2.57,2.07.49.36,1.08,1.36,1.77,3-.01,0,.25.56.79,1.69.54,1.13.98,2,1.31,2.63.33.63.6,1.11.81,1.44.57.9,1.22,1.34,1.95,1.34v.38h-.71c-1.21,0-2.16-.4-2.85-1.19-.52-.59-1-1.32-1.42-2.19-.09-.21-.48-1.11-1.16-2.71-.68-1.6-1.04-2.45-1.09-2.55-.83-1.71-1.6-2.57-2.32-2.57v-.38c1.79,0,2.87-.15,3.24-.46.5-.43.85-.9,1.03-1.38.38-1.02.57-2.15.57-3.38,0-1.56-.28-2.76-.83-3.61s-1.29-1.31-2.23-1.38c-.41-.03-.89-.04-1.42-.04Z"/>
    <path class="cls-1" d="m229.48,270.77c1.18-1.01,2.47-1.52,3.89-1.52s2.71.51,3.89,1.52c1.18,1.01,2.12,2.44,2.81,4.28.7,1.84,1.04,3.93,1.04,6.26s-.35,4.42-1.04,6.26c-.7,1.84-1.63,3.27-2.81,4.28-1.18,1.01-2.39,1.52-3.63,1.52s-2.33-.29-3.28-.88c-.95-.59-1.77-1.41-2.47-2.46-.7-1.05-1.25-2.33-1.65-3.84-.41-1.51-.61-3.28-.61-5.32s.35-3.97,1.04-5.82c.7-1.84,1.63-3.27,2.81-4.28Zm-.42,18.39c1.16,2.04,2.59,3.05,4.3,3.05s3.15-1.02,4.31-3.05c1.16-2.04,1.75-4.65,1.75-7.85s-.58-5.82-1.75-7.85-2.6-3.05-4.31-3.05-3.15,1.02-4.3,3.05-1.73,4.65-1.73,7.85.58,5.82,1.73,7.85Z"/>
    <path class="cls-1" d="m243.57,291.56c-.05-.31-.07-.93-.07-1.88s.1-1.91.3-2.88h.28c-.02.23-.02.46-.02.69,0,1.38.27,2.52.81,3.4.54.88,1.3,1.33,2.26,1.33s1.8-.39,2.36-1.17c.57-.78.85-1.79.85-3.03s-.28-2.27-.83-3.09l-4.59-5.91c-.73-1.05-1.1-2.46-1.1-4.22,0-1,.16-1.92.49-2.76s.79-1.52,1.38-2.02,1.28-.75,2.08-.75,1.5.12,2.11.35h.76l.05,4.19h-.25c0-1.08-.22-1.91-.67-2.5-.44-.59-1.08-.88-1.91-.88s-1.51.35-2.04,1.06c-.54.71-.8,1.61-.8,2.73s.3,2.08.9,2.9l4.64,5.99c.7.97,1.06,2.33,1.06,4.07s-.39,3.21-1.18,4.42c-.79,1.2-1.75,1.81-2.88,1.81-.75,0-1.5-.15-2.25-.46-.75-.31-1.32-.75-1.72-1.34Z"/>
    <path class="cls-1" d="m268.1,270.17h-.34c-.41,0-.73.27-.94.81-.09.23-.15.5-.16.81v12.94c0,2.66-.51,4.77-1.53,6.32-1.02,1.55-2.41,2.32-4.19,2.32s-3.18-.77-4.2-2.3c-1.03-1.54-1.54-3.63-1.54-6.3v-12.94c0-.46-.11-.85-.32-1.17-.21-.32-.47-.48-.78-.48h-.34v-.38h4.36v.38h-.34c-.31,0-.57.16-.78.48-.21.32-.32.71-.32,1.17v12.48c0,2.48.38,4.44,1.14,5.88.76,1.43,1.83,2.15,3.21,2.15s2.49-.68,3.33-2.04c.83-1.36,1.25-3.21,1.25-5.57v-12.9c-.02-.49-.13-.88-.33-1.19s-.46-.46-.77-.46h-.34v-.38h3.95v.38Z"/>
  </g>
</svg>