<?xml version="1.0" encoding="UTF-8"?>
<svg id="Layer_1" data-name="Layer 1" xmlns="http://www.w3.org/2000/svg" viewBox="0 0 500 196">
  <defs>
    <style>
      .cls-1 {
        font-family: Cinzel-Regular, Cinzel;
        font-size: 41.99px;
      }

      .cls-1, .cls-2 {
        fill: #c2a167;
      }

      .cls-3 {
        letter-spacing: -.03em;
      }

      .cls-4 {
        letter-spacing: -.09em;
      }

      .cls-5 {
        letter-spacing: -.02em;
      }
    </style>
  </defs>
  <path class="cls-2" d="m237.43,52.07c-16.2-19.05-44.9-15.56-66.28-7.33-1.12.35-1.38,1.07-.53,1.8,15.87,17.57,29.43,37.75,50.74,50.26-4.18,1.64-8.18,2.6-10.69,6.46-11,9.97-28.46,12.44-43.25,13.49-19.79.52-43.29-.22-56.94-15.66-1.82-2.39-4.46-2.7-7.14-3.77-3.84-2.04,3.76-4.83,4.9-6.77,14.73-14.07,30.4-27.33,43.98-42.4,1.03-1.11.69-1.78-.97-2.07-28.1-3.1-23.39-19.74-6.94-12.84-1.45,1.14-3.11,1.67-4.03,3.02,12.17,7.73,27.08.81,40.09-1.43,9.41-3.08,19.54-3.26,29.14-5.24,10.39-4.57,29.74,6.41,34.66,2.02,3.44-6.13-20.86-7.94-11.15-15.75,3.44-2.94,9.22-3.37,11.89-6.9,2.3-.67,5.08-.7,7.98.11-.22.26-.38.46-.54.65,33.37,13.56.89,12.26.63,21.28,2.39,4.35,16.53-.92,21.11-1.48,26.89-5.92,57.41,17.56,82.12,7.61,3.72-1.46-5.09-3.63-1.12-4.97,3.98-1.43,7.69-.74,11.17,1.4,4.26,7.56-13.67,12.16-19.68,12.46-4.8.58,5.01,7.75,6.14,9.6,13.73,13.9,29.51,27.01,42.55,40.98-.56,1.82-6.84,1.03-8.45,4.56-3.92,5.91-10.23,8.43-16.63,10.81-24.98,8.16-54.41,6.64-78.1-4.49-7.99-3.77-4.69-7.34-15.27-10.68-.05-.19-.1-.39-.14-.58,20.94-11.53,34.97-31.72,49.89-49.2,1.52-1.59,1.58-1.8-.53-2.42-22.3-8.37-48.27-11.07-66.03,7.09.07.16.14.32.22.48,11.89,4.07,7.74,6.73-.3,12.03,11.18,8.24,1.24,6.22,3.13,11.23,1.15,1.54,1.01,2.61-.32,3.99-6.66,4.76,1.28,3.2-.23,9.65-1.82,12.17,10.7,19.99,18.58,27.8,2.69,2.86-1.4,5.66-1.97,8.52-.39,1.32.79,2.2,1.99,2.7,9.58,3.6,18.44,7.97,27.76,12.25-38.3,10.44-80.64,8.9-119.13.33,3.46-4.87,31.43-11.53,28.58-16.46-6.26-6.04,1.71-10.4,6.51-14.08,5.81-5.35,12.03-13.72,10.71-21.68-.39-1.92.15-3.49,1.48-4.86,2.34-3.06-5.87-3.88-2.12-8.49-.1-4.59-5.47-5.1,1.18-9.34,5.19-3.3-16.84-7.64,1.35-13.68Zm148.31,42.09c-2.62-3.92-6.96-5.96-10.25-9.28-5.93-5.51-11.76-11.13-17.52-16.79-6.39-6.28-13.04-12.38-17.7-20.02-.43-.71-1.36-1.4-2.2-1.61-2.88-.75-5.63-.46-7.62,1.91-2.9,3.45-5.81,6.89-8.49,10.48-6.3,8.42-13.04,16.49-20.74,23.83-3.57,3.4-7.3,6.66-10.92,10.02-.43.4-.59,1.03-.88,1.56,2.08,1.07,4.51.5,6.8.61,25.64-.02,51.27-.04,76.91-.05.86,0,1.75-.01,2.58.17,3.26.73,6.41.53,10.03-.83Zm-177.13.44c.06-.77-1.18-1.56-1.85-2.25-15.18-13.15-27.35-28.75-39.9-44.04-2.05-2.49-4.83-2.36-7.63-1.65-.76.19-1.48.93-1.97,1.59-1.73,2.35-3.08,4.99-5.06,7.12-9.21,9.62-18.73,19.03-28.44,28.22-3.3,3.04-6.96,5.73-10.42,8.63-.47.39-.68,1.05-1.01,1.59,1.23.49,2.51.7,3.81.88.8.19,1.59.67,2.37.64,29.98-1.43,60.14.41,90.1-.72Z"/>
  <text class="cls-1" transform="translate(0 194.4) scale(1.07 1)"><tspan x="0" y="0">Du</tspan><tspan class="cls-4" x="63.28" y="0">y</tspan><tspan x="86.37" y="0">ar </tspan><tspan class="cls-5" x="151.04" y="0">H</tspan><tspan x="184.33" y="0">ukuk Bü</tspan><tspan class="cls-3" x="360.02" y="0">r</tspan><tspan x="384.88" y="0">osu</tspan></text>
</svg>