<?xml version="1.0" encoding="UTF-8"?>
<svg id="Layer_1" data-name="Layer 1" xmlns="http://www.w3.org/2000/svg" viewBox="0 0 500 196">
  <defs>
    <style>
      .cls-1 {
        fill: #c2a167;
      }
    </style>
  </defs>
  <path class="cls-1" d="m237.43,52.07c-16.2-19.05-44.9-15.56-66.28-7.33-1.12.35-1.38,1.07-.53,1.8,15.87,17.57,29.43,37.75,50.74,50.26-4.18,1.64-8.18,2.6-10.69,6.46-11,9.97-28.46,12.44-43.25,13.49-19.79.52-43.29-.22-56.94-15.66-1.82-2.39-4.46-2.7-7.14-3.77-3.84-2.04,3.76-4.83,4.9-6.77,14.73-14.07,30.4-27.33,43.98-42.4,1.03-1.11.69-1.78-.97-2.07-28.1-3.1-23.39-19.74-6.94-12.84-1.45,1.14-3.11,1.67-4.03,3.02,12.17,7.73,27.08.81,40.09-1.43,9.41-3.08,19.54-3.26,29.14-5.24,10.39-4.57,29.74,6.41,34.66,2.02,3.44-6.13-20.86-7.94-11.15-15.75,3.44-2.94,9.22-3.37,11.89-6.9,2.3-.67,5.08-.7,7.98.11-.22.26-.38.46-.54.65,33.37,13.56.89,12.26.63,21.28,2.39,4.35,16.53-.92,21.11-1.48,26.89-5.92,57.41,17.56,82.12,7.61,3.72-1.46-5.09-3.63-1.12-4.97,3.98-1.43,7.69-.74,11.17,1.4,4.26,7.56-13.67,12.16-19.68,12.46-4.8.58,5.01,7.75,6.14,9.6,13.73,13.9,29.51,27.01,42.55,40.98-.56,1.82-6.84,1.03-8.45,4.56-3.92,5.91-10.23,8.43-16.63,10.81-24.98,8.16-54.41,6.64-78.1-4.49-7.99-3.77-4.69-7.34-15.27-10.68-.05-.19-.1-.39-.14-.58,20.94-11.53,34.97-31.72,49.89-49.2,1.52-1.59,1.58-1.8-.53-2.42-22.3-8.37-48.27-11.07-66.03,7.09.07.16.14.32.22.48,11.89,4.07,7.74,6.73-.3,12.03,11.18,8.24,1.24,6.22,3.13,11.23,1.15,1.54,1.01,2.61-.32,3.99-6.66,4.76,1.28,3.2-.23,9.65-1.82,12.17,10.7,19.99,18.58,27.8,2.69,2.86-1.4,5.66-1.97,8.52-.39,1.32.79,2.2,1.99,2.7,9.58,3.6,18.44,7.97,27.76,12.25-38.3,10.44-80.64,8.9-119.13.33,3.46-4.87,31.43-11.53,28.58-16.46-6.26-6.04,1.71-10.4,6.51-14.08,5.81-5.35,12.03-13.72,10.71-21.68-.39-1.92.15-3.49,1.48-4.86,2.34-3.06-5.87-3.88-2.12-8.49-.1-4.59-5.47-5.1,1.18-9.34,5.19-3.3-16.84-7.64,1.35-13.68Zm148.31,42.09c-2.62-3.92-6.96-5.96-10.25-9.28-5.93-5.51-11.76-11.13-17.52-16.79-6.39-6.28-13.04-12.38-17.7-20.02-.43-.71-1.36-1.4-2.2-1.61-2.88-.75-5.63-.46-7.62,1.91-2.9,3.45-5.81,6.89-8.49,10.48-6.3,8.42-13.04,16.49-20.74,23.83-3.57,3.4-7.3,6.66-10.92,10.02-.43.4-.59,1.03-.88,1.56,2.08,1.07,4.51.5,6.8.61,25.64-.02,51.27-.04,76.91-.05.86,0,1.75-.01,2.58.17,3.26.73,6.41.53,10.03-.83Zm-177.13.44c.06-.77-1.18-1.56-1.85-2.25-15.18-13.15-27.35-28.75-39.9-44.04-2.05-2.49-4.83-2.36-7.63-1.65-.76.19-1.48.93-1.97,1.59-1.73,2.35-3.08,4.99-5.06,7.12-9.21,9.62-18.73,19.03-28.44,28.22-3.3,3.04-6.96,5.73-10.42,8.63-.47.39-.68,1.05-1.01,1.59,1.23.49,2.51.7,3.81.88.8.19,1.59.67,2.37.64,29.98-1.43,60.14.41,90.1-.72Z"/>
  <g>
    <path class="cls-1" d="m29.51,169.06c2.97,2.7,4.46,6.25,4.46,10.64s-1.49,7.94-4.46,10.64c-2.97,2.7-6.85,4.05-11.63,4.05H2.69v-.42h.58c.78,0,1.44-.26,1.99-.78.55-.52.84-1.14.87-1.87v-23.51c0-.67-.29-1.24-.87-1.7-.58-.46-1.25-.69-1.99-.69h-.54l-.04-.42h15.19c4.78,0,8.66,1.35,11.63,4.05Zm-20.46-2.79v26.87h8.83c2.51,0,4.73-.56,6.65-1.68,1.93-1.12,3.42-2.69,4.48-4.72,1.06-2.03,1.59-4.37,1.59-7.03,0-4.03-1.17-7.28-3.52-9.74-2.35-2.46-5.42-3.69-9.21-3.69h-8.83Z"/>
    <path class="cls-1" d="m65.97,169.62h-.67c-.81,0-1.42.29-1.84.88-.18.25-.28.55-.31.88v14.15c0,2.91-.99,5.21-2.98,6.91-1.99,1.69-4.71,2.54-8.18,2.54s-6.2-.84-8.2-2.52c-2-1.68-3-3.97-3-6.89v-14.15c0-.5-.21-.93-.63-1.28-.42-.35-.93-.53-1.52-.53h-.67v-.42h8.52v.42h-.67c-.6,0-1.11.18-1.52.53-.42.35-.63.78-.63,1.28v13.65c0,2.71.74,4.86,2.22,6.42,1.48,1.57,3.57,2.35,6.27,2.35s4.87-.74,6.5-2.23c1.63-1.48,2.44-3.51,2.44-6.09v-14.11c-.03-.53-.25-.97-.65-1.3s-.9-.5-1.5-.5h-.67v-.42h7.71v.42Z"/>
    <path class="cls-1" d="m96.44,169.62h-.54c-.81,0-1.58.2-2.31.61-.73.41-1.34.92-1.81,1.53l-8.6,12.22v7.73c0,.62.25,1.15.76,1.6.51.45,1.12.67,1.84.67h.54v.42h-9.19v-.42h.54c.72,0,1.33-.22,1.84-.67.51-.45.76-.98.76-1.6v-7.77l-8.29-12.22c-1.02-1.4-2.39-2.1-4.12-2.1h-.54v-.42h10.4v.42h-.54c-.57,0-.98.17-1.23.5-.25.34-.38.62-.38.86s.03.46.09.65l6.54,10.88,6.95-10.83c.09-.22.13-.45.13-.69s-.13-.53-.38-.86c-.25-.34-.68-.5-1.28-.5h-.54v-.42h9.37v.42Z"/>
    <path class="cls-1" d="m121.76,193.98h.36v.42h-9.19v-.42h.36c.57,0,1-.18,1.3-.55.3-.36.45-.71.45-1.03s-.06-.64-.18-.95l-2.46-5.58h-11.34l-2.46,5.46c-.15.36-.22.71-.22,1.03s.15.67.45,1.05c.3.38.75.57,1.34.57h.36v.42h-8.56v-.42h.36c.63,0,1.26-.2,1.9-.61.64-.41,1.17-1.01,1.59-1.83,6.54-13.1,9.95-19.96,10.22-20.58.51-1.18.78-1.96.81-2.35h.4l11.07,22.93c.87,1.62,2.02,2.44,3.45,2.44Zm-20.12-9.36h10.22l-5.02-11.51-5.2,11.51Z"/>
    <path class="cls-1" d="m132.74,170.5h-2.38v21.21c.03.87.45,1.53,1.25,1.97.39.2.82.29,1.3.29h.58l.04.42h-9.19v-.42h.63c.69,0,1.28-.22,1.77-.65.49-.43.74-.96.74-1.58v-19.95c0-.62-.25-1.13-.74-1.55-.49-.42-1.08-.63-1.77-.63h-.63v-.42h11.25c2.81,0,5.03.6,6.66,1.81,1.63,1.2,2.44,2.79,2.44,4.75s-.66,3.6-1.97,4.91c-1.31,1.32-2.99,2.07-5.02,2.27.96.39,2.11,1.48,3.45,3.27-.03,0,.49.62,1.55,1.85,1.06,1.23,1.91,2.19,2.55,2.88.64.69,1.17,1.21,1.59,1.57,1.1.98,2.38,1.47,3.81,1.47v.42h-1.39c-2.36,0-4.21-.43-5.56-1.3-1.02-.64-1.94-1.44-2.78-2.39-.18-.22-.93-1.21-2.26-2.96-1.33-1.75-2.04-2.68-2.13-2.79-1.61-1.88-3.12-2.81-4.53-2.81v-.42c3.5,0,5.6-.17,6.32-.5.99-.48,1.66-.98,2.02-1.51.75-1.12,1.12-2.35,1.12-3.7,0-1.71-.54-3.02-1.61-3.95-1.08-.92-2.52-1.43-4.35-1.51-.81-.03-1.73-.04-2.78-.04Z"/>
    <path class="cls-1" d="m185.71,193.98c.78,0,1.44-.25,1.99-.76.55-.5.84-1.12.87-1.85v-10.88h-18.33v10.83c0,.73.28,1.35.85,1.87.57.52,1.24.78,2.02.78h.58v.42h-9.81v-.42h.58c.78,0,1.44-.26,1.99-.78.55-.52.84-1.14.87-1.87v-23.3c-.03-.73-.32-1.34-.87-1.85-.55-.5-1.22-.76-1.99-.76h-.58v-.42h9.81v.42h-.58c-.78,0-1.44.25-1.99.76-.55.5-.84,1.12-.87,1.85v11.21h18.33v-11.21c-.03-1.01-.51-1.76-1.43-2.27-.45-.22-.93-.34-1.43-.34h-.58v-.42h9.81v.42h-.58c-.78,0-1.44.26-1.99.78-.55.52-.84,1.14-.87,1.87v23.26c.03.73.32,1.35.87,1.87.55.52,1.22.78,1.99.78h.58v.42h-9.81v-.42h.58Z"/>
    <path class="cls-1" d="m226.54,169.62h-.67c-.81,0-1.42.29-1.84.88-.18.25-.28.55-.31.88v14.15c0,2.91-.99,5.21-2.98,6.91-1.99,1.69-4.71,2.54-8.18,2.54s-6.2-.84-8.2-2.52c-2-1.68-3-3.97-3-6.89v-14.15c0-.5-.21-.93-.63-1.28-.42-.35-.93-.53-1.52-.53h-.67v-.42h8.52v.42h-.67c-.6,0-1.11.18-1.52.53-.42.35-.63.78-.63,1.28v13.65c0,2.71.74,4.86,2.22,6.42,1.48,1.57,3.57,2.35,6.27,2.35s4.87-.74,6.5-2.23c1.63-1.48,2.44-3.51,2.44-6.09v-14.11c-.03-.53-.25-.97-.65-1.3s-.9-.5-1.5-.5h-.67v-.42h7.71v.42Z"/>
    <path class="cls-1" d="m239.27,193.98h.49v.42h-9.19v-.42h.54c.72,0,1.33-.22,1.84-.67.51-.45.78-.98.81-1.6v-19.82c-.03-.62-.3-1.15-.81-1.6-.51-.45-1.12-.67-1.84-.67h-.54v-.42h9.19v.42h-.54c-.96,0-1.7.36-2.24,1.09-.24.34-.36.71-.36,1.13v19.9c0,.62.26,1.14.78,1.58.52.43,1.14.65,1.86.65Zm17.03.42h-1.66c-2.93,0-5.12-.8-6.59-2.39l-9.86-10.12,9.64-10.62c.33-.39.38-.76.16-1.11-.22-.35-.6-.53-1.14-.53h-.4v-.42h9.14v.42h-.18c-1.82,0-3.27.5-4.35,1.51l-9.77,9.78,11.11,11.34c.54.62,1.09,1.05,1.66,1.3s1.31.39,2.24.42v.42Z"/>
    <path class="cls-1" d="m285.88,169.62h-.67c-.81,0-1.42.29-1.84.88-.18.25-.29.55-.31.88v14.15c0,2.91-.99,5.21-2.98,6.91s-4.71,2.54-8.18,2.54-6.2-.84-8.2-2.52-3-3.97-3-6.89v-14.15c0-.5-.21-.93-.63-1.28-.42-.35-.93-.53-1.52-.53h-.67v-.42h8.51v.42h-.67c-.6,0-1.11.18-1.52.53-.42.35-.63.78-.63,1.28v13.65c0,2.71.74,4.86,2.22,6.42,1.48,1.57,3.57,2.35,6.28,2.35s4.87-.74,6.5-2.23c1.63-1.48,2.44-3.51,2.44-6.09v-14.11c-.03-.53-.25-.97-.65-1.3-.4-.34-.9-.5-1.5-.5h-.67v-.42h7.71v.42Z"/>
    <path class="cls-1" d="m298.6,193.98h.49v.42h-9.19v-.42h.54c.72,0,1.33-.22,1.84-.67.51-.45.78-.98.81-1.6v-19.82c-.03-.62-.3-1.15-.81-1.6-.51-.45-1.12-.67-1.84-.67h-.54v-.42h9.19v.42h-.54c-.96,0-1.7.36-2.24,1.09-.24.34-.36.71-.36,1.13v19.9c0,.62.26,1.14.78,1.58.52.43,1.14.65,1.86.65Zm17.03.42h-1.66c-2.93,0-5.12-.8-6.59-2.39l-9.86-10.12,9.63-10.62c.33-.39.38-.76.16-1.11-.22-.35-.61-.53-1.14-.53h-.4v-.42h9.14v.42h-.18c-1.82,0-3.27.5-4.35,1.51l-9.77,9.78,11.12,11.34c.54.62,1.09,1.05,1.66,1.3.57.25,1.31.39,2.24.42v.42Z"/>
    <path class="cls-1" d="m340.24,194.4h-10.94l.04-.42h.54c.78,0,1.44-.25,1.99-.76s.84-1.12.88-1.85v-23.35c0-.73-.29-1.34-.85-1.85-.57-.5-1.24-.76-2.02-.76h-.54l-.04-.42h8.92c3.08,0,5.47.64,7.17,1.91,1.7,1.27,2.55,2.97,2.55,5.1,0,1.68-.48,3.07-1.43,4.18-.96,1.11-2.12,1.84-3.5,2.2,2.36.34,4.23,1.25,5.6,2.73,1.38,1.48,2.06,3.35,2.06,5.61s-.92,4.09-2.76,5.52-4.4,2.14-7.69,2.14Zm-4.57-1.51h4.48c2.27,0,4.03-.58,5.29-1.74,1.26-1.16,1.88-2.81,1.88-4.93,0-1.2-.22-2.26-.65-3.17-.43-.91-.98-1.63-1.63-2.16-1.73-1.34-4.33-2.02-7.8-2.02h-.04v-.38h.43c.25,0,.62-.03,1.1-.08.48-.06,1.01-.15,1.61-.29.6-.14,1.13-.36,1.61-.67.48-.31.93-.67,1.34-1.09.87-.92,1.3-2.3,1.3-4.14s-.56-3.27-1.68-4.3c-1.12-1.04-2.74-1.55-4.86-1.55h-2.38v26.54Z"/>
    <path class="cls-1" d="m382.68,169.62h-.67c-.81,0-1.42.29-1.84.88-.18.25-.29.55-.31.88v14.15c0,2.91-.99,5.21-2.98,6.91-1.99,1.69-4.71,2.54-8.18,2.54s-6.2-.84-8.2-2.52-3-3.97-3-6.89v-14.15c0-.5-.21-.93-.63-1.28-.42-.35-.93-.53-1.52-.53h-.67v-.42h8.52v.42h-.67c-.6,0-1.11.18-1.53.53-.42.35-.63.78-.63,1.28v13.65c0,2.71.74,4.86,2.22,6.42,1.48,1.57,3.57,2.35,6.27,2.35s4.87-.74,6.5-2.23c1.63-1.48,2.44-3.51,2.44-6.09v-14.11c-.03-.81-.48-1.37-1.34-1.68-.24-.08-.51-.13-.81-.13h-.67v-.42h7.71v.42Zm-17.07-3.59c-.33.32-.74.48-1.23.48s-.91-.16-1.26-.48c-.34-.32-.52-.71-.52-1.15s.17-.83.52-1.16c.34-.32.76-.48,1.26-.48s.9.16,1.23.48c.33.32.49.71.49,1.16s-.16.83-.49,1.15Zm8.45,0c-.34.32-.76.48-1.23.48s-.89-.16-1.23-.48c-.34-.32-.52-.71-.52-1.15s.17-.83.52-1.16c.34-.32.75-.48,1.23-.48s.89.16,1.23.48c.34.32.52.71.52,1.16s-.17.83-.52,1.15Z"/>
    <path class="cls-1" d="m395.09,170.5h-2.38v21.21c.03.87.45,1.53,1.25,1.97.39.2.82.29,1.3.29h.58l.04.42h-9.19v-.42h.63c.69,0,1.28-.22,1.77-.65.49-.43.74-.96.74-1.58v-19.95c0-.62-.25-1.13-.74-1.55-.49-.42-1.08-.63-1.77-.63h-.63v-.42h11.25c2.81,0,5.03.6,6.65,1.81,1.63,1.2,2.44,2.79,2.44,4.75s-.66,3.6-1.97,4.91c-1.31,1.32-2.99,2.07-5.02,2.27.96.39,2.11,1.48,3.45,3.27-.03,0,.48.62,1.54,1.85,1.06,1.23,1.91,2.19,2.55,2.88s1.17,1.21,1.59,1.57c1.11.98,2.38,1.47,3.81,1.47v.42h-1.39c-2.36,0-4.21-.43-5.56-1.3-1.02-.64-1.94-1.44-2.78-2.39-.18-.22-.93-1.21-2.26-2.96-1.33-1.75-2.04-2.68-2.13-2.79-1.61-1.88-3.12-2.81-4.53-2.81v-.42c3.5,0,5.6-.17,6.32-.5.99-.48,1.66-.98,2.02-1.51.75-1.12,1.12-2.35,1.12-3.7,0-1.71-.54-3.02-1.61-3.95-1.07-.92-2.52-1.43-4.35-1.51-.81-.03-1.73-.04-2.78-.04Z"/>
    <path class="cls-1" d="m420.54,170.27c2.3-1.11,4.83-1.66,7.6-1.66s5.29.55,7.6,1.66c2.3,1.11,4.13,2.67,5.49,4.68,1.36,2.02,2.04,4.3,2.04,6.84s-.68,4.83-2.04,6.84c-1.36,2.02-3.19,3.58-5.49,4.68s-4.66,1.66-7.08,1.66-4.55-.32-6.41-.97c-1.85-.64-3.46-1.54-4.82-2.69-1.36-1.15-2.44-2.55-3.23-4.2-.79-1.65-1.19-3.59-1.19-5.82s.68-4.35,2.04-6.36c1.36-2.02,3.19-3.58,5.49-4.68Zm-.83,20.11c2.26,2.23,5.06,3.34,8.4,3.34s6.15-1.11,8.43-3.34c2.27-2.23,3.41-5.09,3.41-8.59s-1.14-6.36-3.41-8.59c-2.27-2.23-5.08-3.34-8.43-3.34s-6.15,1.11-8.4,3.34-3.38,5.09-3.38,8.59,1.13,6.36,3.38,8.59Z"/>
    <path class="cls-1" d="m448.06,193.01c-.09-.34-.13-1.02-.13-2.06s.19-2.08.58-3.15h.54c-.03.25-.04.5-.04.76,0,1.51.53,2.75,1.59,3.72s2.53,1.45,4.41,1.45,3.51-.43,4.62-1.28c1.1-.85,1.66-1.96,1.66-3.32s-.54-2.48-1.61-3.38l-8.96-6.47c-1.43-1.15-2.15-2.69-2.15-4.62,0-1.09.32-2.1.96-3.02s1.54-1.66,2.69-2.2,2.5-.82,4.06-.82,2.93.12,4.12.38h1.48l.09,4.58h-.49c0-1.18-.43-2.08-1.3-2.73-.87-.64-2.11-.97-3.72-.97s-2.94.39-3.99,1.16c-1.04.77-1.57,1.76-1.57,2.98s.58,2.27,1.75,3.17l9.05,6.55c1.37,1.06,2.06,2.55,2.06,4.45s-.77,3.51-2.31,4.83c-1.54,1.32-3.41,1.97-5.62,1.97-1.46,0-2.93-.17-4.39-.5-1.46-.34-2.58-.83-3.36-1.47Z"/>
    <path class="cls-1" d="m495.97,169.62h-.67c-.81,0-1.42.29-1.84.88-.18.25-.29.55-.31.88v14.15c0,2.91-.99,5.21-2.98,6.91-1.99,1.69-4.71,2.54-8.18,2.54s-6.2-.84-8.2-2.52-3-3.97-3-6.89v-14.15c0-.5-.21-.93-.63-1.28-.42-.35-.93-.53-1.52-.53h-.67v-.42h8.52v.42h-.67c-.6,0-1.11.18-1.53.53-.42.35-.63.78-.63,1.28v13.65c0,2.71.74,4.86,2.22,6.42,1.48,1.57,3.57,2.35,6.27,2.35s4.87-.74,6.5-2.23c1.63-1.48,2.44-3.51,2.44-6.09v-14.11c-.03-.53-.25-.97-.65-1.3-.4-.34-.9-.5-1.5-.5h-.67v-.42h7.71v.42Z"/>
  </g>
</svg>